<?xml version="1.0" standalone="no"?>
<!DOCTYPE svg PUBLIC "-//W3C//DTD SVG 20010904//EN"
 "http://www.w3.org/TR/2001/REC-SVG-20010904/DTD/svg10.dtd">
<svg version="1.0" xmlns="http://www.w3.org/2000/svg"
 width="1378.000000pt" height="1379.000000pt" viewBox="0 0 1378.000000 1379.000000"
 preserveAspectRatio="xMidYMid meet">

<g transform="translate(0.000000,1379.000000) scale(0.100000,-0.100000)"
fill="#000000" stroke="none">
<path d="M6937 13673 c-4 -49 -9 -177 -13 -285 l-7 -198 35 0 35 0 6 122 c4
66 7 153 8 192 2 128 7 131 65 35 132 -220 217 -355 228 -361 6 -4 25 -8 42
-8 l31 0 7 163 c3 89 9 217 12 283 l7 121 -32 5 c-18 3 -34 1 -37 -4 -3 -5
-10 -102 -15 -215 -5 -113 -11 -208 -13 -210 -2 -2 -66 97 -142 221 l-139 226
-36 0 -36 0 -6 -87z"/>
<path d="M6462 13742 c-30 -3 -33 -6 -28 -30 11 -59 28 -344 24 -387 -7 -59
-36 -90 -99 -105 -85 -21 -152 6 -178 68 -7 16 -20 116 -29 223 l-17 194 -38
3 c-28 2 -37 -1 -37 -12 0 -50 33 -377 40 -407 26 -97 94 -144 205 -142 85 1
144 23 184 69 52 58 56 94 37 319 -10 110 -20 202 -24 205 -4 3 -22 4 -40 2z"/>
<path d="M7584 13443 c-77 -142 -140 -264 -142 -270 -2 -9 9 -13 36 -13 38 0
39 1 78 76 21 42 41 77 44 79 3 2 53 -3 110 -10 58 -8 110 -15 116 -15 6 0 19
-37 29 -81 10 -45 25 -88 33 -95 16 -16 72 -19 72 -4 0 14 -149 571 -156 582
-3 4 -22 8 -44 8 l-38 0 -138 -257z m204 52 c17 -71 29 -132 27 -135 -6 -9
-175 14 -177 23 -1 8 115 247 119 244 1 -1 15 -61 31 -132z"/>
<path d="M5805 13673 c-11 -3 -23 -8 -26 -11 -4 -4 -21 -110 -39 -237 -17
-126 -35 -237 -38 -247 -5 -11 -43 48 -127 200 l-121 217 -54 -3 c-30 -2 -56
-5 -58 -7 -2 -2 20 -129 49 -284 l52 -280 31 6 c17 3 33 7 35 9 5 4 -7 75 -48
288 -17 88 -30 163 -29 167 2 4 57 -89 123 -207 106 -189 123 -214 145 -214
14 0 30 4 36 8 6 4 26 111 44 237 18 127 37 234 42 240 5 5 8 1 8 -11 0 -22
78 -425 83 -431 2 -2 18 0 36 3 27 6 32 11 28 28 -3 12 -27 137 -53 279 l-48
257 -26 -1 c-14 -1 -34 -3 -45 -6z"/>
<path d="M8205 13602 c-51 -24 -70 -46 -85 -99 -11 -37 -10 -46 9 -86 24 -50
56 -74 179 -136 45 -22 86 -50 92 -60 18 -34 12 -80 -15 -106 -48 -49 -193
-24 -244 41 -10 13 -21 41 -25 63 -5 34 -10 39 -37 43 -38 6 -44 -6 -34 -68
19 -128 230 -217 355 -151 58 31 94 94 87 155 -6 59 -50 103 -152 154 -114 57
-145 83 -145 119 0 45 39 79 91 79 94 0 169 -48 169 -110 0 -28 15 -40 51 -40
28 0 26 76 -3 121 -50 75 -211 120 -293 81z"/>
<path d="M8716 13483 c-74 -256 -147 -525 -143 -530 3 -2 20 -6 38 -6 l32 -2
76 268 c63 226 73 270 61 277 -24 16 -58 11 -64 -7z"/>
<path d="M4888 13458 c-16 -5 -28 -15 -28 -21 1 -17 148 -528 154 -534 5 -5
326 84 335 93 2 2 0 17 -5 33 l-9 29 -133 -38 c-133 -37 -133 -37 -141 -16 -5
11 -36 121 -71 244 -34 122 -65 222 -69 221 -3 0 -18 -5 -33 -11z"/>
<path d="M8873 13177 c-51 -145 -93 -268 -93 -274 0 -10 31 -23 56 -23 6 0 28
48 49 108 21 59 41 111 46 116 12 14 130 -37 151 -65 10 -13 33 -82 50 -151
l31 -127 43 -15 c24 -8 44 -13 44 -10 0 30 -65 252 -80 273 l-19 28 62 6 c54
5 66 10 94 40 75 82 59 198 -34 242 -30 14 -300 116 -307 115 0 0 -43 -119
-93 -263z m238 144 c116 -40 133 -49 152 -81 24 -40 21 -65 -11 -102 -25 -27
-35 -31 -71 -30 -51 2 -221 60 -221 76 0 18 53 166 60 166 3 0 44 -13 91 -29z"/>
<path d="M4505 13327 c-104 -39 -191 -71 -193 -72 -1 -1 35 -103 81 -226 46
-123 90 -241 96 -261 7 -21 16 -40 21 -43 8 -5 379 130 391 143 4 4 2 19 -4
34 l-12 26 -160 -59 c-87 -32 -162 -59 -165 -59 -6 0 -65 157 -65 174 0 4 63
32 140 61 135 51 140 53 138 80 -1 15 -4 30 -7 32 -2 3 -66 -18 -142 -46 -75
-28 -142 -51 -149 -51 -14 0 -69 135 -62 153 3 6 73 37 155 67 146 53 151 56
145 80 -3 14 -8 28 -12 31 -3 4 -91 -25 -196 -64z"/>
<path d="M9514 13114 c-124 -266 -141 -319 -124 -382 20 -77 126 -152 226
-160 70 -6 117 12 157 58 25 29 156 293 195 391 3 7 -48 39 -61 39 -2 0 -39
-77 -83 -170 -43 -94 -93 -189 -112 -210 -30 -36 -39 -40 -78 -40 -58 0 -138
40 -159 80 -27 52 -18 88 70 280 47 101 82 187 77 191 -4 4 -19 11 -34 14 -27
7 -29 4 -74 -91z"/>
<path d="M3878 13064 l-27 -14 100 -195 c55 -107 97 -195 93 -195 -4 0 -100
51 -213 113 -113 61 -215 117 -226 123 -15 8 -28 7 -52 -5 -18 -8 -33 -19 -33
-25 0 -5 24 -55 54 -110 29 -56 86 -164 126 -241 40 -77 75 -142 76 -144 5 -5
64 20 64 28 0 3 -45 91 -100 196 -55 104 -98 191 -96 193 2 1 108 -54 236
-124 l232 -126 33 18 34 18 -76 146 c-42 80 -101 193 -132 252 -31 60 -58 108
-61 108 -3 -1 -17 -7 -32 -16z"/>
<path d="M10037 12797 c-47 -84 -110 -196 -141 -249 l-55 -97 137 -77 c75 -43
145 -82 154 -88 14 -8 21 -6 32 9 9 11 16 25 16 32 0 6 -51 39 -112 73 -62 34
-116 65 -120 68 -4 4 47 102 113 217 65 116 119 216 119 222 0 7 -13 19 -28
27 l-29 15 -86 -152z"/>
<path d="M6620 12853 c-604 -32 -1073 -120 -1635 -307 -641 -214 -1260 -549
-1789 -970 l-98 -78 20 -21 21 -20 33 26 c585 470 1222 813 1923 1037 1124
359 2349 371 3477 34 1844 -550 3302 -1961 3916 -3789 214 -636 313 -1297 299
-1985 -14 -651 -117 -1232 -324 -1825 -216 -620 -559 -1244 -946 -1720 -31
-39 -57 -75 -57 -80 0 -6 10 -16 22 -24 26 -16 14 -29 182 194 573 760 955
1655 1110 2600 54 333 76 611 76 988 0 1038 -270 2053 -785 2947 -736 1279
-1903 2232 -3304 2700 -597 199 -1264 304 -1896 298 -104 -1 -215 -3 -245 -5z"/>
<path d="M3182 12668 c-25 -16 -32 -26 -28 -42 2 -11 30 -145 61 -296 32 -151
59 -276 60 -278 3 -4 26 8 53 26 13 9 12 16 -23 168 -4 18 11 32 89 83 52 33
100 61 108 61 8 0 45 -23 82 -51 l67 -50 31 18 c17 10 31 22 31 28 0 5 -53 47
-119 93 -65 45 -137 95 -159 111 -22 15 -80 55 -128 89 -48 34 -89 62 -90 61
-1 0 -17 -10 -35 -21z m193 -280 c-42 -26 -79 -48 -84 -48 -4 0 -19 53 -33
118 -15 64 -29 125 -33 135 -4 10 45 -21 109 -69 l116 -87 -75 -49z"/>
<path d="M10453 12543 c-56 -82 -128 -186 -160 -232 l-58 -83 24 -19 c13 -10
26 -19 30 -19 6 0 151 202 234 327 16 24 32 45 37 48 7 4 -19 -93 -94 -350
l-35 -120 26 -22 27 -22 70 50 c39 27 129 93 200 145 71 53 126 89 123 81 -3
-9 -58 -91 -123 -184 -64 -92 -118 -173 -121 -179 -2 -6 8 -19 23 -29 31 -20
26 -25 111 100 26 39 92 133 146 210 l98 140 -28 23 c-50 40 -57 38 -156 -36
-194 -145 -289 -213 -301 -218 -8 -3 13 83 55 228 38 128 69 238 69 244 0 11
-72 64 -87 64 -5 0 -54 -66 -110 -147z"/>
<path d="M6740 12450 l0 -33 68 6 c86 8 463 -8 657 -28 464 -47 1011 -180
1435 -348 1153 -455 2104 -1262 2742 -2327 407 -680 664 -1462 748 -2275 39
-382 33 -839 -15 -1230 -104 -835 -396 -1633 -855 -2336 -33 -51 -60 -97 -60
-103 0 -6 9 -17 19 -23 24 -15 28 -10 115 124 421 652 714 1432 825 2203 203
1397 -119 2802 -908 3960 -872 1281 -2237 2142 -3768 2379 -241 38 -418 52
-710 58 l-293 6 0 -33z"/>
<path d="M6180 12425 c-8 -2 -84 -14 -167 -26 l-153 -22 0 -29 c0 -34 -5 -33
153 -9 67 11 143 22 170 26 44 6 47 8 47 36 0 29 -7 32 -50 24z"/>
<path d="M2761 12375 c-99 -44 -169 -141 -157 -216 20 -124 115 -150 282 -79
89 38 154 50 180 32 22 -14 36 -55 30 -85 -21 -103 -176 -174 -257 -117 l-28
21 -22 -22 c-28 -28 -18 -46 41 -76 57 -29 102 -29 166 1 98 46 174 138 174
213 0 45 -40 113 -80 135 -49 27 -119 19 -221 -27 -108 -49 -149 -55 -178 -24
-41 44 -15 113 63 163 46 30 116 35 136 11 17 -21 33 -19 58 8 l22 23 -32 24
c-41 30 -127 37 -177 15z"/>
<path d="M5373 12260 c-177 -49 -233 -70 -233 -88 1 -39 14 -43 75 -22 33 11
110 34 173 52 108 29 113 32 110 56 -2 14 -7 27 -13 28 -5 1 -56 -10 -112 -26z"/>
<path d="M11065 12059 c-110 -61 -229 -127 -263 -146 l-64 -35 23 -24 c12 -13
28 -24 35 -24 6 0 43 18 80 40 38 22 73 40 79 40 5 0 35 -22 65 -48 31 -26 70
-59 88 -74 l31 -26 -30 -89 -30 -88 28 -22 c15 -13 31 -23 35 -23 5 0 74 207
169 509 l24 73 -30 24 c-17 13 -32 24 -35 24 -3 0 -95 -50 -205 -111z m168
-36 c-14 -38 -35 -96 -46 -130 -12 -35 -24 -63 -27 -63 -9 0 -140 111 -140
118 0 4 35 26 78 49 42 23 93 53 112 67 19 14 38 25 42 26 4 0 -5 -30 -19 -67z"/>
<path d="M4625 11987 c-181 -81 -179 -79 -170 -106 9 -29 24 -27 103 13 37 18
103 48 147 66 44 18 84 36 88 40 12 11 -1 50 -16 50 -7 0 -75 -29 -152 -63z"/>
<path d="M2251 11946 c-28 -30 -36 0 97 -338 53 -137 102 -248 108 -248 14 0
44 33 44 49 0 7 -14 47 -31 89 l-31 77 84 77 c45 43 89 78 96 78 7 0 44 -16
82 -35 38 -19 74 -35 80 -35 12 0 60 41 60 51 0 4 -17 14 -37 22 -21 8 -90 40
-153 70 -270 129 -354 167 -365 167 -6 0 -22 -11 -34 -24z m299 -186 c0 -4 -4
-10 -9 -12 -5 -1 -35 -27 -66 -57 -31 -30 -60 -50 -64 -45 -4 5 -18 36 -31 69
-13 33 -36 87 -52 119 -15 33 -28 60 -28 61 0 1 56 -27 125 -62 69 -35 125
-68 125 -73z"/>
<path d="M11485 11940 c-18 -20 -18 -22 48 -88 l66 -67 -174 -180 -173 -180
21 -22 c11 -13 24 -23 28 -23 4 0 86 80 183 178 l175 177 66 -65 65 -64 22 22
23 22 -155 155 c-85 85 -160 155 -166 155 -6 0 -19 -9 -29 -20z"/>
<path d="M2032 11747 c-12 -13 -22 -32 -22 -44 0 -17 49 -230 66 -287 4 -10 2
-16 -2 -13 -5 2 -76 17 -158 32 l-148 27 -29 -28 c-16 -15 -29 -31 -29 -34 0
-4 75 -19 168 -34 92 -15 178 -29 192 -32 24 -4 53 -27 153 -123 l47 -45 27
26 27 27 -90 84 -89 84 -39 192 c-22 105 -42 191 -46 191 -4 0 -16 -10 -28
-23z"/>
<path d="M3961 11635 c-164 -103 -168 -106 -144 -127 17 -15 26 -11 138 58 66
41 135 84 153 94 28 17 31 23 22 40 -6 11 -16 20 -23 20 -7 0 -72 -38 -146
-85z"/>
<path d="M11745 11384 c-99 -91 -193 -178 -210 -194 l-30 -30 26 -25 25 -26
140 127 c241 220 274 252 274 261 -1 8 -36 53 -42 53 -1 -1 -84 -75 -183 -166z"/>
<path d="M11895 11204 c-99 -86 -193 -166 -209 -179 -29 -23 -29 -24 -12 -50
9 -14 24 -25 31 -23 8 2 109 84 225 182 l210 180 -22 23 c-12 13 -26 23 -32
22 -6 0 -92 -70 -191 -155z"/>
<path d="M2503 11138 c25 -702 193 -1177 551 -1555 149 -158 344 -312 541
-428 225 -132 434 -225 1035 -460 520 -203 824 -345 1096 -512 39 -23 76 -43
81 -43 17 0 71 73 99 134 52 114 50 247 -6 361 -55 114 -172 230 -444 441
-109 85 -136 104 -255 179 -111 70 -214 162 -243 219 -28 55 -28 137 0 193 37
72 99 103 264 133 282 51 587 30 988 -66 554 -134 946 -338 1270 -664 102
-102 147 -156 305 -370 96 -130 449 -468 572 -547 81 -53 257 -129 315 -138
155 -23 278 139 220 291 -23 62 -196 327 -323 496 -272 362 -634 726 -958 967
-480 354 -979 595 -1541 745 -214 57 -563 124 -995 191 -1343 210 -1770 309
-2420 564 -71 28 -136 51 -144 51 -12 0 -13 -29 -8 -182z"/>
<path d="M1542 11190 c-12 -16 -22 -32 -22 -35 0 -7 70 -129 185 -325 34 -58
74 -127 89 -153 l28 -49 24 23 c13 12 24 27 24 32 0 5 -20 43 -45 84 -25 41
-42 80 -38 86 4 7 36 48 72 92 35 44 66 82 67 84 2 2 42 -9 90 -24 l87 -27 30
31 c23 23 27 31 16 36 -13 5 -581 175 -584 175 -1 0 -11 -13 -23 -30z m201
-96 c64 -21 116 -42 115 -46 -6 -16 -103 -137 -111 -138 -4 0 -20 21 -35 47
-15 25 -46 75 -69 111 -47 70 -49 77 -30 69 6 -2 65 -22 130 -43z"/>
<path d="M12015 11004 c-121 -91 -221 -167 -222 -168 -1 -1 8 -14 20 -29 l22
-28 175 130 c96 71 176 128 178 126 2 -2 -12 -48 -31 -102 -20 -54 -58 -162
-86 -241 -28 -79 -51 -149 -51 -155 1 -13 35 -57 44 -57 5 0 430 314 454 336
5 4 -32 53 -40 54 -4 0 -85 -58 -180 -129 -95 -71 -174 -128 -176 -127 -1 2
36 110 83 240 47 131 85 246 85 255 0 22 -28 61 -43 61 -7 -1 -111 -75 -232
-166z"/>
<path d="M1352 10948 c-23 -36 -25 -28 57 -218 22 -52 41 -97 41 -100 0 -3
-72 -5 -160 -5 l-161 0 -20 -31 -20 -32 198 -7 198 -7 98 -66 98 -67 19 25
c11 14 20 28 20 32 0 4 -44 38 -98 75 -98 67 -99 68 -125 138 -73 198 -112
295 -118 295 -4 0 -16 -14 -27 -32z"/>
<path d="M12440 10269 c-173 -105 -316 -192 -318 -194 -6 -6 23 -45 33 -45 5
0 80 43 165 94 85 52 225 136 310 187 85 51 157 94 159 96 6 4 -21 53 -28 53
-3 0 -148 -86 -321 -191z"/>
<path d="M2038 10363 c-483 -666 -846 -1512 -1002 -2333 -78 -406 -101 -675
-101 -1150 0 -411 9 -533 61 -880 150 -998 556 -1948 1175 -2746 244 -315 598
-686 859 -902 14 -11 59 -48 100 -82 215 -179 537 -399 805 -552 763 -435
1558 -683 2455 -764 250 -23 757 -23 1005 0 796 73 1483 268 2175 617 177 90
231 119 417 228 134 78 493 327 509 352 3 6 -2 20 -13 30 -18 19 -20 18 -98
-39 -971 -709 -2084 -1097 -3272 -1141 -1258 -46 -2465 295 -3508 992 -849
567 -1553 1368 -2004 2282 -55 110 -116 241 -136 290 -20 50 -45 108 -55 131
-51 113 -174 483 -229 694 -142 536 -198 1027 -188 1629 14 820 175 1538 517
2311 135 305 368 707 595 1026 7 10 4 20 -11 35 l-21 21 -35 -49z"/>
<path d="M885 10239 c-6 -17 -3 -27 11 -37 22 -15 515 -291 587 -328 l47 -24
12 25 c6 14 9 27 7 29 -10 10 -625 349 -640 353 -11 3 -20 -3 -24 -18z"/>
<path d="M12874 9963 c-45 -76 -89 -152 -99 -170 -15 -25 -42 -43 -127 -82
-59 -28 -108 -53 -108 -55 0 -16 25 -56 35 -56 7 0 55 20 107 45 53 25 108 45
123 45 25 0 202 -26 328 -49 52 -9 55 -5 32 39 -18 34 -16 34 -198 57 l-137
18 26 38 c14 21 52 82 84 135 l58 96 -19 38 c-11 21 -21 38 -22 38 -2 0 -39
-62 -83 -137z"/>
<path d="M2258 10023 c-79 -95 -354 -583 -453 -808 -275 -620 -417 -1158 -481
-1825 -24 -240 -24 -749 -1 -990 18 -179 22 -211 58 -435 143 -898 553 -1816
1133 -2545 287 -359 686 -746 1046 -1012 336 -248 649 -431 1065 -623 238
-110 655 -252 935 -319 425 -102 869 -156 1284 -156 l196 0 0 30 0 30 -169 0
c-1241 0 -2469 434 -3441 1216 -63 51 -128 105 -145 119 -592 521 -1014 1065
-1350 1740 -306 616 -489 1263 -551 1945 -112 1249 190 2470 873 3524 60 92
63 99 46 112 -23 18 -27 17 -45 -3z"/>
<path d="M670 9799 c-8 -18 -9 -34 -4 -38 5 -5 96 -46 203 -92 157 -67 190
-84 170 -89 -13 -4 -133 -27 -266 -51 l-243 -44 -11 -32 c-10 -32 -6 -53 11
-53 4 0 117 -47 251 -106 225 -97 244 -104 256 -88 32 44 41 39 -334 200 -24
11 -43 21 -43 24 0 3 107 25 238 49 130 23 246 45 258 48 12 2 28 20 37 39
l17 35 -47 20 c-42 18 -359 156 -449 195 -31 13 -32 13 -44 -17z"/>
<path d="M6356 9448 c-21 -302 5 -535 74 -670 23 -43 81 -108 112 -124 34 -18
121 -15 140 4 7 7 6 39 -6 109 -8 54 -27 184 -41 288 -41 312 -47 334 -111
399 -35 36 -121 86 -147 86 -10 0 -16 -23 -21 -92z"/>
<path d="M12663 9398 l13 -33 95 -3 94 -3 43 -112 43 -111 -67 -61 -67 -61 12
-37 c7 -21 17 -37 21 -35 14 5 440 410 440 418 0 4 -5 21 -11 39 l-11 31 -309
0 -309 0 13 -32z m545 -26 c-5 -13 -195 -182 -205 -182 -4 0 -22 37 -39 83
l-31 82 130 7 c71 4 132 10 135 13 8 8 14 6 10 -3z"/>
<path d="M6790 9313 c1 -141 19 -422 35 -516 20 -123 55 -250 104 -377 74
-192 140 -268 241 -278 52 -5 134 12 148 32 5 6 -7 91 -29 201 -21 105 -54
278 -73 385 -53 285 -65 334 -97 398 -51 103 -148 181 -268 216 -30 9 -56 16
-58 16 -2 0 -3 -35 -3 -77z"/>
<path d="M432 9214 c-8 -26 -8 -36 1 -39 361 -131 521 -185 528 -178 4 4 11
20 14 34 6 23 2 28 -22 37 -139 50 -507 182 -508 182 -1 0 -7 -16 -13 -36z"/>
<path d="M13255 9004 c-60 -75 -118 -142 -127 -151 -9 -8 -66 -30 -125 -48
-59 -18 -108 -37 -107 -41 1 -28 18 -65 28 -61 6 2 58 18 116 35 l105 31 185
-59 c101 -32 186 -58 188 -56 2 2 0 20 -3 40 -7 34 -9 36 -89 60 -44 14 -114
33 -153 43 -40 10 -73 20 -73 23 0 3 10 16 23 30 12 14 57 66 100 117 l78 92
-12 40 c-7 23 -15 41 -18 40 -3 0 -55 -61 -116 -135z"/>
<path d="M7272 9121 c-19 -12 -1 -105 119 -601 87 -357 137 -499 224 -629 72
-109 192 -241 239 -262 117 -53 247 10 276 133 21 95 7 291 -31 415 -23 72
-27 77 -471 573 -339 380 -341 381 -356 371z"/>
<path d="M351 8979 c-12 -36 -42 -23 294 -130 l240 -76 13 35 c6 19 11 36 10
37 -9 6 -525 165 -535 165 -6 0 -16 -14 -22 -31z"/>
<path d="M291 8783 c-111 -432 -109 -412 -55 -413 18 0 23 11 39 81 11 45 25
83 32 86 8 3 120 -22 249 -55 128 -33 236 -57 238 -54 2 4 7 21 10 37 l7 30
-236 60 c-130 33 -241 62 -246 66 -5 3 0 36 11 77 24 85 25 112 6 112 -8 0
-21 3 -30 6 -11 4 -17 -5 -25 -33z"/>
<path d="M12977 8498 c3 -18 8 -36 12 -40 3 -4 44 -12 91 -18 47 -6 87 -13 89
-16 5 -4 50 -203 51 -221 0 -7 -34 -34 -75 -60 -75 -47 -76 -48 -70 -83 4 -19
10 -38 13 -41 4 -4 76 41 159 100 84 58 196 135 248 171 l96 65 -5 38 c-2 21
-6 41 -9 43 -3 3 -108 20 -233 39 -126 18 -258 38 -294 44 -36 6 -68 11 -72
11 -4 0 -5 -15 -1 -32z m412 -99 c30 -5 73 -9 95 -9 l40 0 -114 -75 c-63 -41
-120 -75 -125 -75 -9 0 -45 141 -45 173 0 8 46 4 149 -14z"/>
<path d="M565 8239 c-72 -15 -196 -43 -277 -60 l-147 -32 -6 -39 c-4 -22 -5
-41 -3 -42 1 -2 107 -65 233 -141 127 -76 242 -147 258 -157 29 -21 29 -20 41
34 5 24 0 30 -75 73 -73 43 -80 50 -75 74 3 14 13 67 21 117 l17 91 91 19 92
19 6 38 c6 35 4 37 -20 36 -14 0 -84 -14 -156 -30z m-85 -115 c0 -30 -23 -149
-30 -157 -4 -5 -41 11 -81 36 -41 24 -94 55 -119 68 -26 13 -39 24 -30 26 67
14 219 41 238 42 14 1 22 -5 22 -15z"/>
<path d="M13491 7997 c-62 -22 -89 -69 -106 -187 -22 -149 -24 -159 -48 -180
-66 -63 -157 18 -157 139 0 66 24 114 70 140 32 18 36 24 32 51 -5 35 -18 37
-72 10 -60 -30 -92 -86 -97 -168 -6 -76 7 -134 40 -183 72 -107 213 -106 269
2 10 19 25 86 33 149 8 62 22 124 30 137 15 23 54 30 90 17 29 -11 55 -79 55
-141 0 -62 -15 -91 -58 -112 -18 -10 -22 -19 -20 -44 3 -27 7 -32 27 -29 65 7
121 87 121 175 0 84 -24 149 -70 191 -22 20 -49 36 -59 36 -11 0 -25 2 -33 4
-7 3 -28 0 -47 -7z"/>
<path d="M74 7717 c-3 -8 -4 -32 -2 -52 l3 -38 200 -88 c110 -48 213 -93 229
-99 16 -5 27 -13 24 -16 -4 -3 -113 -32 -242 -63 -130 -32 -239 -60 -241 -63
-3 -2 -6 -29 -7 -59 l-3 -54 210 -16 c116 -10 242 -20 282 -23 l71 -7 7 31 c4
17 4 34 1 37 -3 3 -106 14 -228 24 -123 10 -230 20 -238 22 -8 1 95 29 229 62
225 56 244 62 253 85 5 14 6 31 1 39 -8 12 -174 90 -373 173 -41 17 -70 33
-65 35 6 1 109 -5 230 -16 121 -10 221 -18 222 -17 0 1 3 17 5 36 l3 35 -190
16 c-378 32 -375 32 -381 16z"/>
<path d="M13160 7431 l0 -41 90 -27 90 -27 0 -76 c0 -43 3 -97 6 -121 l5 -44
-83 -36 -83 -35 -3 -42 c-2 -23 -1 -42 1 -42 9 0 80 32 200 89 67 32 175 82
240 111 l117 53 0 43 0 43 -272 90 c-150 49 -281 92 -290 96 -15 6 -18 1 -18
-34z m374 -156 c60 -19 119 -35 130 -35 12 0 -15 -16 -59 -34 -44 -19 -104
-44 -133 -56 -29 -13 -55 -21 -57 -18 -3 2 -8 43 -11 91 -6 71 -4 87 7 87 8 0
63 -16 123 -35z"/>
<path d="M5215 7386 c-78 -20 -102 -32 -149 -77 -56 -51 -81 -112 -81 -199 0
-83 25 -150 72 -191 47 -41 78 -53 242 -95 203 -53 272 -100 256 -173 -13 -61
-72 -91 -178 -91 -94 0 -166 31 -190 83 -9 19 -17 42 -17 51 0 14 -15 16 -101
16 l-101 0 7 -42 c12 -71 43 -130 97 -180 70 -66 145 -89 293 -89 167 0 263
36 325 123 102 141 66 340 -74 404 -28 13 -112 40 -186 59 -164 44 -185 52
-221 83 -22 18 -29 32 -29 61 0 86 112 134 235 100 36 -10 58 -29 125 -106 17
-20 29 -23 98 -23 l79 0 -9 52 c-23 123 -96 199 -223 233 -70 18 -200 18 -270
1z"/>
<path d="M9730 7386 c-75 -17 -136 -50 -193 -105 -92 -88 -129 -201 -129 -391
0 -175 32 -277 115 -367 83 -90 171 -124 325 -124 113 0 189 17 259 58 83 48
152 154 161 246 l5 47 -94 0 -94 0 -18 -49 c-31 -88 -103 -131 -217 -131 -102
1 -182 58 -222 159 -18 46 -22 76 -21 166 0 127 21 199 75 254 54 55 83 66
183 66 107 0 143 -17 189 -90 17 -25 38 -50 47 -56 10 -5 53 -9 97 -9 l79 0
-8 45 c-28 151 -128 250 -287 284 -67 14 -181 13 -252 -3z"/>
<path d="M2019 7341 l-29 -29 0 -446 0 -446 95 0 95 0 2 183 3 182 141 0 c107
0 145 -3 158 -14 37 -31 49 -74 56 -202 4 -70 11 -132 14 -138 5 -7 45 -11
108 -11 92 0 99 1 93 18 -5 9 -11 78 -16 153 -10 175 -19 209 -69 252 l-40 34
38 24 c55 36 92 115 92 198 0 127 -52 212 -155 250 -51 19 -77 21 -306 21
l-251 0 -29 -29z m477 -147 c19 -9 41 -29 49 -45 18 -34 19 -99 3 -134 -21
-47 -53 -55 -213 -55 l-145 0 0 125 0 125 136 0 c105 0 144 -4 170 -16z"/>
<path d="M3559 7341 l-29 -29 0 -446 0 -446 345 0 345 0 0 85 0 85 -247 2
-248 3 0 120 0 120 155 5 c163 5 184 11 208 57 7 12 12 40 12 62 l0 41 -187 2
-188 3 0 100 0 100 247 3 248 2 6 25 c3 14 4 49 0 78 -3 28 -6 53 -6 55 0 1
-142 2 -316 2 l-316 0 -29 -29z"/>
<path d="M6530 7342 l-30 -30 0 -446 0 -446 100 0 100 0 0 169 0 169 173 4
c144 2 178 6 210 22 93 46 137 124 145 256 8 148 -33 241 -133 297 l-50 28
-242 3 -243 4 -30 -30z m447 -155 c60 -31 79 -139 36 -205 -25 -40 -72 -52
-198 -52 l-115 0 0 133 c0 74 3 137 8 141 13 15 235 0 269 -17z"/>
<path d="M8009 7341 l-29 -29 0 -446 0 -446 345 0 345 0 0 85 0 85 -247 2
-248 3 0 120 0 120 155 5 c85 3 163 9 173 14 26 12 47 59 47 105 l0 41 -187 2
-188 3 0 100 0 100 253 3 252 2 0 80 0 80 -321 0 -321 0 -29 -29z"/>
<path d="M11059 7341 c-25 -26 -29 -37 -29 -85 l0 -56 140 0 140 0 0 -390 0
-390 100 0 100 0 0 390 0 390 140 0 140 0 0 85 0 85 -351 0 -351 0 -29 -29z"/>
<path d="M535 7040 c-4 -6 -3 -71 1 -145 l7 -135 -254 -2 -254 -3 -3 -39 -3
-39 287 7 c158 3 289 7 290 9 1 1 0 82 -3 180 l-6 177 -28 0 c-15 0 -31 -5
-34 -10z"/>
<path d="M13180 6837 c0 -23 6 -37 16 -41 9 -3 61 -7 117 -7 56 -1 149 -4 206
-8 l105 -6 -230 -141 c-226 -138 -229 -141 -232 -176 -3 -35 -2 -36 35 -42 32
-4 496 -20 528 -17 13 1 19 51 8 61 -4 5 -104 12 -220 16 -117 3 -213 9 -213
13 1 6 392 247 431 265 14 7 19 19 19 51 l0 42 -202 7 c-112 3 -240 9 -285 13
l-83 6 0 -36z"/>
<path d="M170 6525 c-69 -8 -126 -14 -127 -14 -2 -1 -3 -17 -3 -36 0 -42 -16
-40 207 -19 182 16 239 13 276 -16 49 -39 60 -164 20 -218 -28 -38 -69 -47
-280 -67 l-193 -18 0 -33 c0 -18 3 -35 8 -37 4 -2 96 4 205 14 217 21 277 38
315 89 68 92 46 268 -43 336 -37 28 -44 29 -149 31 -61 0 -167 -5 -236 -12z"/>
<path d="M5794 6136 c-96 -30 -154 -113 -154 -218 1 -103 37 -343 59 -384 30
-58 776 -902 798 -903 21 -2 23 15 8 95 -8 43 -30 171 -50 284 -79 449 -174
716 -325 919 -137 183 -229 240 -336 207z"/>
<path d="M13111 5978 c-7 -46 -21 -130 -32 -188 -25 -139 -25 -146 8 -154 15
-4 29 -3 33 3 3 6 16 78 29 160 13 81 27 154 31 161 7 11 25 11 99 0 52 -7 91
-18 91 -24 0 -10 -19 -124 -40 -245 -6 -30 -9 -55 -7 -56 1 -2 16 -6 33 -9
l31 -7 23 148 c12 81 26 152 30 156 10 11 170 -14 170 -26 0 -5 -12 -78 -26
-163 -14 -86 -24 -157 -21 -160 2 -3 17 -6 32 -7 l28 -2 34 199 c18 109 32
200 31 202 -3 3 -540 94 -555 94 -5 0 -15 -37 -22 -82z"/>
<path d="M554 5943 c-50 -49 -97 -103 -104 -121 l-12 -32 -20 40 c-35 70 -96
100 -173 86 -50 -10 -103 -59 -111 -103 -8 -44 33 -353 49 -369 2 -2 102 14
223 37 193 35 324 59 332 59 1 0 2 14 2 30 0 18 -6 33 -15 37 -13 5 -150 -16
-221 -33 -20 -5 -23 0 -34 63 -8 51 -8 76 0 98 6 17 54 71 107 121 l95 92 -7
41 c-4 22 -10 41 -14 41 -3 0 -47 -39 -97 -87z m-223 -113 c30 -16 48 -63 68
-170 21 -114 30 -101 -87 -120 -40 -7 -76 -9 -79 -6 -12 11 -42 211 -36 236
13 59 79 89 134 60z"/>
<path d="M5005 5723 c-88 -46 -143 -137 -132 -218 9 -61 31 -101 170 -309 195
-290 381 -517 633 -771 381 -384 744 -651 1179 -868 475 -238 849 -334 2140
-552 1137 -192 1480 -274 2052 -489 71 -27 139 -46 162 -46 61 0 66 17 64 195
-7 400 -82 749 -227 1052 -207 429 -516 702 -1158 1024 -210 105 -288 139
-718 311 -565 226 -822 345 -1042 481 -58 36 -114 68 -125 71 -32 10 -70 -13
-102 -63 -46 -73 -64 -149 -59 -256 7 -174 73 -264 364 -496 569 -455 598
-481 636 -565 50 -114 -10 -185 -208 -247 -139 -44 -219 -50 -442 -33 -585 46
-964 139 -1330 327 -312 161 -543 360 -781 674 -87 114 -168 204 -336 371
-239 237 -312 294 -484 378 -84 41 -102 46 -160 46 -40 -1 -78 -7 -96 -17z"/>
<path d="M6493 5593 c-18 -9 -33 -22 -33 -28 0 -6 20 -112 45 -236 25 -123 64
-325 86 -449 46 -257 65 -307 146 -388 54 -55 158 -111 210 -115 l28 -2 -1
275 c-2 388 -30 550 -132 743 -79 151 -160 218 -264 216 -29 0 -68 -8 -85 -16z"/>
<path d="M12989 5368 c-44 -177 -43 -193 2 -186 21 3 26 15 55 133 17 72 35
129 40 129 5 -1 114 -27 242 -59 128 -31 235 -55 238 -52 2 2 9 18 13 34 l9
31 -102 25 c-55 15 -180 46 -278 70 l-176 44 -43 -169z"/>
<path d="M495 5335 c-137 -35 -253 -64 -257 -65 -11 0 -10 -42 1 -59 8 -12 54
-4 285 53 l276 68 -6 27 c-9 36 -13 41 -32 40 -9 0 -129 -29 -267 -64z"/>
<path d="M660 5163 c-8 -3 -26 -15 -38 -27 -46 -41 -52 -66 -52 -219 0 -127
-2 -146 -18 -160 -21 -19 -64 -22 -93 -7 -32 17 -62 89 -63 148 -1 48 2 57 32
83 26 23 31 34 26 54 -3 14 -10 28 -16 31 -11 7 -56 -21 -80 -50 -40 -49 -40
-164 0 -242 34 -66 74 -96 133 -102 70 -7 111 16 140 76 20 40 21 54 15 156
-9 157 7 196 84 196 43 0 86 -47 106 -117 21 -72 12 -117 -32 -161 -29 -29
-34 -40 -29 -63 4 -16 12 -29 18 -29 24 0 75 39 95 72 65 106 12 296 -100 354
-27 14 -99 18 -128 7z"/>
<path d="M7083 5122 c-9 -6 -9 -42 -2 -147 5 -77 13 -232 18 -345 9 -221 16
-250 70 -318 29 -37 137 -110 147 -99 15 14 46 260 51 398 6 180 -4 260 -48
364 -48 114 -94 155 -173 155 -28 0 -56 -4 -63 -8z"/>
<path d="M12912 5067 c-7 -17 -8 -34 -4 -38 4 -3 104 -39 222 -80 l215 -74
-252 -3 -251 -2 -11 -30 c-10 -30 -9 -31 87 -107 197 -156 293 -233 288 -233
-2 0 -102 34 -220 75 l-217 74 -10 -26 c-5 -14 -8 -31 -6 -36 1 -5 55 -28 117
-49 63 -22 178 -62 256 -89 77 -27 145 -49 150 -49 11 0 34 56 34 82 0 9 -37
44 -82 79 -126 97 -281 220 -298 237 -13 13 15 14 238 9 l254 -6 14 35 c8 18
15 43 17 55 2 24 29 13 -314 132 l-216 74 -11 -30z"/>
<path d="M758 4522 c-114 -114 -210 -210 -214 -214 -3 -4 -1 -23 6 -43 l12
-36 301 7 c166 4 304 8 306 10 2 2 0 18 -6 36 l-9 33 -95 -3 -94 -4 -43 104
c-23 57 -42 108 -42 113 0 6 29 39 64 74 l64 64 -16 33 c-8 19 -18 34 -21 34
-3 0 -99 -93 -213 -208z m101 -117 c17 -41 31 -79 31 -84 0 -12 -56 -19 -179
-24 l-94 -3 99 92 c54 51 102 93 105 94 3 0 20 -34 38 -75z"/>
<path d="M12684 4374 c-47 -30 -78 -73 -105 -143 -24 -64 -24 -104 0 -157 25
-55 63 -82 222 -157 240 -113 231 -111 244 -57 5 21 1 27 -27 39 -170 75 -310
146 -343 174 -37 32 -40 38 -39 84 0 56 34 124 73 150 48 31 96 20 285 -66 97
-45 181 -81 185 -81 9 0 36 59 30 63 -2 2 -51 25 -109 51 -58 27 -118 55 -135
63 -136 67 -218 78 -281 37z"/>
<path d="M1159 4157 c-24 -13 -134 -70 -244 -127 -110 -57 -202 -105 -204
-106 -7 -6 21 -64 31 -64 6 0 34 13 62 29 100 56 326 172 326 167 0 -2 -57
-109 -126 -236 l-127 -232 17 -35 c9 -19 20 -33 24 -31 5 2 119 61 254 132
l246 129 -10 28 c-5 16 -16 29 -24 29 -14 0 -80 -33 -292 -147 -46 -25 -86
-42 -89 -39 -3 3 51 108 119 233 l125 228 -15 32 c-9 18 -19 33 -22 33 -4 0
-27 -10 -51 -23z"/>
<path d="M12316 3715 c-9 -13 -16 -28 -16 -32 1 -4 85 -60 187 -123 l186 -115
-119 -6 c-65 -4 -185 -7 -266 -8 l-147 -1 -20 -29 c-12 -16 -21 -33 -21 -38 0
-4 39 -33 88 -62 48 -30 154 -98 236 -150 l149 -94 19 23 c10 13 17 28 15 34
-2 6 -29 27 -60 46 -31 19 -114 71 -184 115 l-128 80 185 6 c102 4 224 7 273
8 l87 1 17 35 c9 19 15 36 12 39 -2 2 -78 50 -169 106 -91 57 -195 122 -232
146 -37 24 -69 44 -71 44 -3 0 -12 -11 -21 -25z"/>
<path d="M1475 3382 c-44 -24 -305 -201 -329 -223 -5 -4 1 -21 13 -38 l21 -30
123 87 c184 130 224 152 273 152 51 0 94 -32 124 -91 26 -50 25 -95 -2 -134
-19 -29 -150 -128 -285 -216 -29 -19 -52 -39 -52 -45 -1 -7 7 -22 18 -35 l18
-23 69 48 c38 26 107 74 154 106 184 128 217 215 131 348 -39 61 -67 87 -113
107 -55 22 -106 19 -163 -13z"/>
<path d="M12026 3264 c-18 -25 -18 -25 28 -100 25 -41 46 -78 46 -83 0 -9
-125 -177 -137 -184 -4 -2 -46 7 -93 20 l-85 25 -22 -27 c-32 -36 -29 -43 20
-55 23 -7 134 -36 247 -67 337 -91 295 -84 319 -52 12 16 21 33 21 39 0 6 -65
116 -145 245 -80 129 -148 241 -151 250 -9 22 -26 18 -48 -11z m170 -321 c26
-43 61 -95 77 -115 16 -21 26 -38 22 -38 -20 0 -266 83 -263 88 7 17 104 141
109 142 4 0 28 -35 55 -77z"/>
<path d="M1718 2822 c-114 -97 -207 -180 -207 -185 -1 -4 14 -23 32 -42 l32
-35 165 65 c91 36 196 79 234 95 38 17 70 29 72 27 2 -1 -54 -97 -123 -212
-69 -115 -127 -214 -129 -220 -5 -11 56 -85 69 -85 10 0 412 343 422 360 4 6
-3 22 -15 35 l-22 24 -175 -151 c-96 -83 -176 -149 -178 -146 -2 2 18 39 44
83 26 44 82 138 124 209 l76 129 -20 29 c-12 16 -26 27 -33 24 -91 -38 -441
-175 -443 -172 -2 1 73 68 166 147 94 79 170 149 170 155 1 13 -31 44 -45 44
-5 -1 -102 -81 -216 -178z"/>
<path d="M11629 2750 c-87 -46 -159 -150 -159 -231 0 -93 84 -169 171 -154 21
4 82 35 137 70 120 77 139 83 175 55 93 -74 -67 -257 -174 -199 -16 8 -23 6
-39 -13 -25 -30 -25 -33 6 -52 60 -40 165 -14 230 56 86 90 97 194 29 262 -58
58 -119 49 -256 -38 -59 -37 -116 -66 -131 -66 -14 0 -37 9 -52 21 -59 46 -16
162 79 216 47 26 73 28 120 9 34 -14 35 -14 56 15 l21 29 -44 20 c-54 25 -122
25 -169 0z"/>
<path d="M2334 2499 c-18 -20 -18 -21 79 -116 53 -53 97 -100 97 -105 0 -5
-77 -88 -172 -184 l-172 -175 27 -27 28 -27 199 205 199 205 -123 123 c-68 67
-128 122 -133 122 -6 0 -18 -9 -29 -21z"/>
<path d="M11280 2395 l-24 -26 120 -122 c66 -67 156 -159 200 -205 l79 -83 27
28 26 28 -197 203 c-109 111 -200 202 -202 202 -3 0 -16 -11 -29 -25z"/>
<path d="M11133 2251 c-13 -11 -23 -23 -23 -28 0 -4 34 -48 75 -97 41 -48 75
-92 75 -96 0 -5 -23 -27 -51 -49 -64 -51 -95 -53 -242 -11 -59 17 -113 30
-120 30 -7 0 -26 -13 -41 -29 l-28 -30 40 -11 c23 -6 69 -20 104 -31 35 -11
88 -21 119 -22 l55 -2 -23 -34 c-17 -25 -23 -48 -23 -87 0 -46 5 -58 32 -90
34 -39 82 -64 120 -64 30 0 96 34 133 67 17 16 62 55 100 87 39 33 76 65 84
72 13 12 -36 76 -204 264 -70 79 -140 162 -143 171 -5 13 -14 11 -39 -10z
m242 -343 l59 -71 -44 -39 c-101 -89 -146 -118 -181 -118 -44 1 -79 30 -86 74
-7 42 12 75 71 126 22 19 56 50 76 67 19 18 37 32 40 32 3 0 32 -32 65 -71z"/>
<path d="M2677 2182 c-10 -10 -17 -23 -17 -28 1 -5 59 -56 130 -114 71 -58
129 -109 129 -113 1 -8 -107 -140 -118 -144 -3 -2 -60 42 -126 97 -119 99
-120 100 -137 79 -10 -12 -18 -25 -18 -30 0 -4 52 -50 114 -101 63 -51 115
-97 115 -102 1 -5 -16 -29 -36 -54 -21 -24 -45 -53 -53 -63 -15 -18 -21 -14
-142 86 -69 58 -131 105 -137 105 -6 0 -16 -11 -23 -25 -9 -21 -8 -27 10 -42
198 -168 286 -235 298 -227 17 11 354 414 354 423 0 7 -315 271 -323 271 -2 0
-11 -8 -20 -18z"/>
<path d="M9690 2148 c-36 -23 -106 -63 -157 -90 -89 -47 -92 -50 -81 -74 6
-13 14 -24 18 -24 11 0 299 159 319 176 7 6 -18 54 -26 53 -5 0 -37 -19 -73
-41z"/>
<path d="M8925 1774 c-88 -36 -161 -66 -162 -68 -8 -7 12 -46 23 -46 15 0 279
101 317 122 20 11 23 17 16 36 -5 12 -14 22 -21 21 -7 0 -85 -30 -173 -65z"/>
<path d="M10597 1816 c-39 -14 -99 -56 -130 -91 -54 -60 -61 -146 -19 -222 30
-55 224 -333 232 -332 3 0 16 9 29 20 30 25 31 22 -99 204 -104 146 -127 194
-116 241 10 38 77 98 126 113 77 23 120 -14 275 -237 43 -62 82 -115 87 -118
8 -5 57 26 58 38 0 9 -206 295 -239 332 -32 35 -96 66 -136 65 -16 0 -47 -6
-68 -13z"/>
<path d="M3293 1683 c-9 -16 -40 -64 -68 -108 -29 -44 -89 -138 -135 -209
l-82 -129 23 -18 c13 -10 28 -17 34 -16 5 2 62 85 126 185 l117 182 8 -271 9
-270 31 -20 32 -20 23 38 c13 21 59 94 104 163 44 69 103 160 130 204 l48 78
-24 19 c-13 10 -27 19 -31 19 -3 0 -21 -24 -39 -52 -17 -29 -71 -113 -118
-187 l-86 -134 -6 189 c-4 104 -7 225 -8 269 -1 78 -2 81 -30 98 -37 22 -37
22 -58 -10z"/>
<path d="M8210 1545 c-164 -43 -182 -52 -161 -85 8 -12 36 -8 186 29 174 43
176 44 173 70 -2 14 -10 26 -18 27 -8 1 -89 -18 -180 -41z"/>
<path d="M10083 1478 l-152 -90 15 -29 c8 -16 16 -29 18 -29 2 0 56 32 120 70
64 39 118 70 120 70 4 0 37 -54 179 -295 39 -66 74 -124 77 -128 4 -5 21 0 38
11 l31 18 -136 230 c-74 126 -141 236 -147 245 -10 15 -29 7 -163 -73z"/>
<path d="M3746 1392 c-3 -26 -15 -148 -26 -272 -11 -124 -22 -240 -24 -258 -4
-29 -1 -36 27 -52 18 -11 36 -18 42 -17 12 4 453 390 454 397 1 3 -13 14 -30
24 -35 21 -31 23 -122 -64 l-48 -45 -105 55 -104 55 1 40 c0 22 4 64 8 93 l8
53 -38 19 -37 19 -6 -47z m122 -423 c-57 -53 -104 -96 -104 -95 -2 1 33 268
35 273 1 2 39 -16 86 -39 l86 -43 -103 -96z"/>
<path d="M7610 1430 c-25 -4 -105 -13 -177 -21 l-133 -13 0 -28 c0 -15 4 -28
9 -28 17 0 297 30 332 35 33 6 35 8 31 36 -2 16 -7 28 -11 28 -3 -1 -26 -5
-51 -9z"/>
<path d="M9818 1324 c-16 -8 -28 -18 -28 -23 0 -5 45 -101 99 -215 55 -113 99
-206 97 -206 -1 0 -81 79 -178 177 l-176 176 -31 -13 c-30 -12 -31 -15 -26
-54 17 -119 50 -444 45 -441 -3 2 -48 93 -100 202 -52 109 -95 200 -97 202 -4
6 -63 -21 -63 -30 0 -4 34 -79 76 -166 42 -87 96 -200 120 -250 24 -51 47 -93
50 -93 4 0 25 8 45 18 28 12 39 23 39 40 0 12 -11 120 -25 239 -14 119 -24
224 -23 232 2 9 73 -59 177 -167 l174 -181 49 25 c26 13 48 28 48 32 0 8 -235
500 -242 507 -1 2 -15 -3 -30 -11z"/>
<path d="M4284 1106 c-37 -16 -69 -55 -84 -101 -24 -73 14 -131 157 -239 68
-51 83 -71 83 -110 0 -32 -43 -66 -84 -66 -41 1 -110 33 -141 66 -19 20 -25
38 -25 70 0 39 -2 43 -31 49 -17 4 -33 4 -37 0 -16 -16 -3 -107 19 -140 49
-71 185 -126 263 -104 99 27 140 126 87 209 -21 32 -51 60 -127 115 -34 25
-69 56 -78 70 -40 61 0 125 79 125 109 0 201 -80 193 -168 -3 -32 0 -36 27
-43 36 -10 45 1 45 58 0 85 -46 147 -145 194 -67 32 -147 38 -201 15z"/>
<path d="M9253 1068 l-33 -11 0 -96 0 -96 -112 -39 -112 -39 -60 67 c-34 36
-66 66 -73 66 -19 0 -64 -23 -61 -31 2 -4 37 -44 78 -90 41 -45 130 -144 198
-218 68 -75 127 -137 132 -139 4 -2 24 4 44 12 l36 15 0 305 c0 169 -1 306 -2
305 -2 -1 -18 -6 -35 -11z m-31 -405 c2 -76 2 -139 2 -141 -1 -2 -43 45 -93
104 -50 59 -90 109 -88 110 3 4 160 62 169 63 4 1 8 -61 10 -136z"/>
<path d="M4750 675 l24 -305 39 -12 c31 -9 40 -9 51 3 37 40 368 460 365 463
-2 2 -19 8 -37 14 -32 11 -32 11 -89 -62 l-56 -73 -111 34 c-61 20 -112 36
-114 38 -2 2 -6 44 -9 94 -3 51 -9 93 -12 95 -3 2 -22 7 -41 11 l-35 6 25
-306z m176 2 c41 -12 74 -25 74 -30 0 -4 -26 -40 -58 -80 -32 -41 -69 -90 -81
-111 -13 -20 -24 -36 -26 -34 -1 2 -5 67 -8 146 -4 125 -3 143 10 138 8 -3 48
-16 89 -29z"/>
<path d="M8593 843 c-7 -2 -13 -10 -13 -17 0 -6 29 -114 65 -239 36 -125 65
-230 65 -232 0 -2 -40 -16 -90 -31 -87 -26 -89 -28 -83 -53 3 -14 8 -28 10
-31 2 -2 29 3 61 12 31 9 128 35 215 59 l158 44 -5 29 c-4 16 -8 31 -10 34 -3
2 -44 -7 -91 -21 l-87 -25 -14 34 c-8 18 -14 38 -14 43 0 6 -20 79 -44 163
-24 84 -49 172 -56 196 -11 42 -28 51 -67 35z"/>
<path d="M5401 743 c-5 -21 -18 -73 -28 -116 l-17 -79 -141 -126 c-77 -70
-143 -131 -147 -137 -4 -6 9 -13 32 -18 l40 -8 111 103 c115 107 129 118 129
98 0 -22 92 -269 104 -279 15 -12 76 -24 76 -15 0 4 -30 88 -66 186 l-67 178
28 116 c15 63 25 117 23 119 -1 1 -17 6 -35 10 -30 6 -32 5 -42 -32z"/>
<path d="M6990 588 c0 -106 3 -277 7 -380 l6 -188 24 0 c13 0 26 6 29 14 3 8
2 178 -3 378 l-8 363 -27 3 -28 3 0 -193z"/>
<path d="M8234 745 c-3 -8 6 -67 20 -132 45 -208 87 -398 91 -410 3 -9 13 -9
36 -3 17 5 33 11 35 13 2 2 -23 124 -56 272 -33 147 -60 270 -60 272 0 11 -62
1 -66 -12z"/>
<path d="M5650 723 c0 -20 137 -594 142 -598 2 -1 20 -5 40 -8 l37 -6 146 254
c80 140 148 261 151 269 5 13 -2 16 -34 16 -40 0 -41 -1 -78 -71 -21 -39 -44
-73 -51 -76 -12 -5 -81 3 -200 24 -31 5 -32 7 -53 99 -20 86 -24 94 -45 94
-13 0 -30 3 -39 6 -9 3 -16 2 -16 -3z m243 -273 c42 -7 77 -15 77 -17 0 -2
-25 -49 -55 -104 -29 -55 -57 -109 -60 -120 -4 -11 -9 -18 -12 -16 -6 6 -53
235 -53 259 0 10 6 16 13 14 6 -2 47 -10 90 -16z"/>
<path d="M8022 713 c-17 -3 -21 -9 -17 -26 7 -25 33 -167 71 -384 l27 -153 33
0 c18 0 35 4 38 8 3 5 -18 133 -46 285 -55 294 -50 281 -106 270z"/>
<path d="M7828 672 c-34 -4 -34 6 -4 -242 14 -107 23 -196 21 -198 -1 -2 -80
87 -174 198 -162 189 -174 200 -207 200 -19 0 -37 -6 -39 -12 -2 -7 10 -134
28 -283 l32 -270 39 -3 38 -3 -6 38 c-16 110 -47 385 -44 394 2 5 80 -80 173
-190 136 -160 175 -200 195 -200 57 -1 57 -6 22 291 -18 150 -36 275 -40 278
-4 3 -19 4 -34 2z"/>
<path d="M6357 624 c-3 -5 -8 -60 -12 -122 l-8 -112 -123 -153 c-68 -83 -124
-155 -124 -159 0 -5 18 -8 40 -8 43 0 48 4 171 171 29 38 55 69 59 69 5 0 40
-60 80 -134 l72 -134 41 -4 c23 -3 44 -4 46 -2 3 3 -46 92 -145 265 l-44 76
10 118 c5 66 8 120 6 122 -8 8 -64 14 -69 7z"/>
</g>
</svg>
